<svg width="78" height="78" viewBox="0 0 78 78" fill="none" xmlns="http://www.w3.org/2000/svg">
<path d="M39 71C39 74.3137 36.2972 77.0484 33.0248 76.5273C27.6336 75.6689 22.4664 73.6548 17.8883 70.5958C11.6393 66.4204 6.76871 60.4856 3.89258 53.542C1.01645 46.5984 0.263929 38.9579 1.73017 31.5866C3.19641 24.2153 6.81556 17.4443 12.13 12.1299C17.4443 6.81555 24.2153 3.1964 31.5866 1.73017C38.9579 0.263929 46.5984 1.01646 53.542 3.89259C60.4856 6.76872 66.4204 11.6393 70.5959 17.8883C73.6548 22.4664 75.6689 27.6336 76.5273 33.0248C77.0484 36.2973 74.3137 39 71 39H59.9997C56.686 39 54.106 36.2108 52.8155 33.1587C52.4489 32.2916 51.9998 31.4569 51.4718 30.6666C49.8236 28.2 47.481 26.2774 44.7401 25.1421C41.9993 24.0068 38.9834 23.7098 36.0737 24.2885C33.1641 24.8673 30.4914 26.2959 28.3936 28.3936C26.2959 30.4914 24.8673 33.1641 24.2886 36.0737C23.7098 38.9834 24.0068 41.9993 25.1421 44.7401C26.2774 47.481 28.2 49.8236 30.6666 51.4718C31.4569 51.9998 32.2916 52.4489 33.1587 52.8155C36.2108 54.106 39 56.686 39 59.9997V71Z" fill="#457B9D"/>
<circle cx="39" cy="39" r="22" fill="#F1FAEE"/>
<path d="M53.8492 24.1508C56.1924 21.8076 60.0612 21.7835 61.8303 24.5855C63.5888 27.3707 64.832 30.4688 65.4812 33.7326C66.523 38.9701 65.9883 44.3989 63.9448 49.3325C61.9012 54.2661 58.4405 58.4829 54.0004 61.4497C49.5603 64.4165 44.3401 66 39 66C33.6599 66 28.4397 64.4165 23.9996 61.4497C19.5595 58.4829 16.0988 54.2661 14.0553 49.3325C12.0117 44.3989 11.477 38.9701 12.5188 33.7326C13.168 30.4688 14.4112 27.3707 16.1697 24.5855C17.9388 21.7835 21.8076 21.8076 24.1508 24.1508L27.5664 27.5664C29.9071 29.9071 29.6656 33.7681 29.0198 37.0148C28.6272 38.9887 28.8287 41.0347 29.5989 42.8941C30.369 44.7535 31.6733 46.3427 33.3467 47.4608C35.0201 48.5789 36.9874 49.1757 39 49.1757C41.0126 49.1757 42.9799 48.5789 44.6533 47.4608C46.3267 46.3427 47.631 44.7535 48.4011 42.8941C49.1713 41.0347 49.3728 38.9887 48.9802 37.0148C48.3344 33.7681 48.0929 29.9071 50.4337 27.5664L53.8492 24.1508Z" fill="#1D3557"/>
</svg>